<?xml version="1.0" encoding="UTF-8" standalone="no"?>
<!DOCTYPE svg PUBLIC "-//W3C//DTD SVG 1.1//EN" "http://www.w3.org/Graphics/SVG/1.1/DTD/svg11.dtd">
<!-- Created with Vectornator (http://vectornator.io/) -->
<svg height="100%" stroke-miterlimit="10" style="fill-rule:nonzero;clip-rule:evenodd;stroke-linecap:round;stroke-linejoin:round;" version="1.1" viewBox="0 0 92 92" width="100%" xml:space="preserve" xmlns="http://www.w3.org/2000/svg" xmlns:vectornator="http://vectornator.io" xmlns:xlink="http://www.w3.org/1999/xlink">
<defs>
<clipPath id="TextBounds">
<rect height="18.5234" width="38.5938" x="5.62018" y="43.6953"/>
</clipPath>
</defs>
<clipPath id="ArtboardFrame">
<rect height="92" width="92" x="0" y="0"/>
</clipPath>
<g clip-path="url(#ArtboardFrame)" id="cwetop25-2020" vectornator:layerName="cwetop25-2020">
<path d="M69.1444 92C56.5214 92 46.2886 81.767 46.2886 69.1444C46.2886 56.5215 56.5214 46.2886 69.1444 46.2886C81.7669 46.2886 92 56.5215 92 69.1444C92 81.767 81.7669 92 69.1444 92M69.1562 48.125C57.5433 48.125 48.125 57.5434 48.125 69.1562C48.125 80.7691 57.5433 90.1563 69.1562 90.1562C80.7689 90.1562 90.1562 80.7691 90.1562 69.1562C90.1562 57.5434 80.769 48.125 69.1562 48.125Z" fill="#1a1919" fill-rule="evenodd" opacity="1" stroke="none"/>
<g opacity="1">
<g opacity="1">
<path d="M56.4375 62.6562C52.8871 62.6562 50 65.5944 50 69.2188C50 72.8431 52.8871 75.7813 56.4375 75.7812L56.4375 73.375C54.0706 73.375 52.1562 71.5142 52.1562 69.2188C52.1562 66.9233 54.0706 65.0625 56.4375 65.0625L56.4375 62.6562Z" fill="#d0d0d0" fill-rule="evenodd" opacity="1" stroke="none"/>
<path d="M56.4375 62.6562L56.4375 65.0625L58.5 65.0625L57.7188 62.6562L56.4375 62.6562ZM56.4375 73.375L56.4375 75.7812L61.9375 75.7812L61.1562 73.375L56.4375 73.375Z" fill="#d0d0d0" fill-rule="evenodd" opacity="1" stroke="none"/>
<path d="M56.4375 62.2188C52.8871 62.2188 50 65.1569 50 68.7812C50 72.4056 52.8871 75.3438 56.4375 75.3438L56.4375 72.9375C54.0706 72.9375 52.1562 71.0767 52.1562 68.7812C52.1562 66.4858 54.0706 64.625 56.4375 64.625L56.4375 62.2188Z" fill="#000000" fill-rule="evenodd" opacity="1" stroke="none"/>
<path d="M56.4375 62.2188L56.4375 64.625L58.5 64.625L57.7188 62.2188L56.4375 62.2188ZM56.4375 72.9375L56.4375 75.3438L61.9375 75.3438L61.1562 72.9375L56.4375 72.9375Z" fill="#000000" fill-rule="evenodd" opacity="1" stroke="none"/>
</g>
<g opacity="1">
<path d="M80.25 62.6562L74.1875 75.7812L81.8438 75.7812L82.8125 73.7188L77.7188 73.7188L79.4688 70.0938L83.4062 70.0938L84.0625 70.0938L85.0625 68.0312L80.3438 68.0312L81.875 64.8438L86.0312 64.8438L86.9062 64.8438L87.9062 62.6562L80.25 62.6562Z" fill="#d0d0d0" fill-rule="evenodd" opacity="1" stroke="none"/>
<path d="M80.25 62.2188L74.1875 75.3438L81.8438 75.3438L82.8125 73.2812L77.7188 73.2812L79.4688 69.6562L83.4062 69.6562L84.0625 69.6562L85.0625 67.5938L80.3438 67.5938L81.875 64.4062L86.0312 64.4062L86.9062 64.4062L87.9062 62.2188L80.25 62.2188Z" fill="#000000" fill-rule="evenodd" opacity="1" stroke="none"/>
</g>
<g opacity="1">
<path d="M59.4375 62.6562L64.125 75.7812L67.7188 75.7812L69.2188 72.0625L70.2812 75.7812L74.125 75.7812L79.9375 62.8438L79.9375 62.6562L77.0312 62.6562L72.2188 73.5938C72.2187 73.5937 69.0602 63.6072 68.8438 62.6562L65.75 62.6562L67.9375 69L66 73.5938C66 73.5938 62.63 63.6051 62.4062 62.6562L59.4375 62.6562Z" fill="#d0d0d0" fill-rule="evenodd" opacity="1" stroke="none"/>
<path d="M59.0938 62.2188L63.7812 75.3438L67.3438 75.3438L68.8438 71.625L69.9062 75.3438L73.75 75.3438L79.5625 62.5L79.5625 62.2188L76.6875 62.2188L71.8438 73.1562C71.8438 73.1562 68.7165 63.17 68.5 62.2188L65.375 62.2188L67.5625 68.5625L65.6562 73.1562C65.6562 73.1562 62.2862 63.1676 62.0625 62.2188L59.0938 62.2188Z" fill="#ffffff" fill-rule="evenodd" opacity="1" stroke="#000000" stroke-linecap="butt" stroke-linejoin="miter" stroke-width="0.5"/>
<path d="M69.6 64.5L70.1721 64.1421L70.5 68L70 68L68.4 72L66.3133 72.1336L69.6 64.5Z" fill="#ffffff" fill-rule="evenodd" opacity="1" stroke="none"/>
</g>
</g>
<path d="M8 0C3.58172 0 0 3.58172 0 8L0 63C0 67.4183 3.58172 71 8 71L45.1562 71C45.1251 70.4939 45 70.014 45 69.5C45 56.1407 55.7061 45.336 69 45.0625L69 8C69 3.58172 65.4183 0 61 0L8 0ZM30.5625 8C33.4999 8 35.7902 8.82608 37.4688 10.4688C39.1473 12.1114 40 14.1508 40 16.5938C40 17.9837 39.7618 19.3059 39.2812 20.5625C38.8007 21.8191 38.0423 23.1241 37 24.5C36.3096 25.4126 35.0503 26.7246 33.25 28.4375C31.4497 30.1504 30.3243 31.3134 29.8438 31.875C29.3632 32.4366 28.954 32.9665 28.6562 33.5L40 33.5L40 39L20 39C20.2166 36.9221 20.8546 34.954 21.9375 33.0938C23.0204 31.2335 25.1804 28.7622 28.375 25.6875C30.9469 23.2024 32.5117 21.5095 33.0938 20.625C33.8789 19.4035 34.2813 18.1934 34.2812 17C34.2812 15.6802 33.9336 14.6778 33.25 13.9688C32.5664 13.2597 31.611 12.9063 30.4062 12.9062C29.215 12.9062 28.2664 13.2871 27.5625 14.0312C26.8586 14.7754 26.452 15.9918 26.3438 17.7188L20.6562 17.125C20.9947 13.8677 22.0569 11.543 23.8438 10.125C25.6306 8.70697 27.8823 8 30.5625 8ZM48.625 8L63.6875 8L63.6875 13.5312L52.9375 13.5312L52.0312 18.7812C53.3024 18.1209 54.6123 17.8125 55.9375 17.8125C58.4662 17.8125 60.6171 18.7455 62.375 20.6562C64.133 22.567 65 25.045 65 28.0938C65 30.6367 64.2949 32.9112 62.875 34.9062C60.9413 37.6318 58.2473 39 54.8125 39C52.0674 39 49.8247 38.2189 48.0938 36.6875C46.3628 35.1561 45.3381 33.1163 45 30.5312L50.6875 29.9062C50.8498 31.2409 51.3271 32.314 52.125 33.0938C52.9228 33.8735 53.8338 34.25 54.875 34.25C56.065 34.25 57.0814 33.7545 57.9062 32.75C58.7311 31.7455 59.125 30.2419 59.125 28.2188C59.125 26.3221 58.7244 24.8858 57.9062 23.9375C57.0881 22.9892 56.0304 22.5312 54.7188 22.5312C53.0825 22.5312 51.6107 23.278 50.3125 24.7812L45.6875 24.0938L48.625 8ZM10.8438 11C11.6351 11 12.327 11.2464 12.875 11.75C13.423 12.2536 13.6875 13.1839 13.6875 14.5L13.6875 16.875L17.4688 16.875L17.4688 18.0938L8.15625 18.0938L8.15625 14.5938C8.15625 13.9759 8.19076 13.5133 8.25 13.1875C8.32617 12.7305 8.47379 12.3402 8.6875 12.0312C8.90121 11.7223 9.20865 11.4696 9.59375 11.2812C9.97884 11.0929 10.3825 11 10.8438 11ZM12.8438 19.6875C13.7874 19.6875 14.6302 19.8691 15.375 20.25C16.1198 20.6309 16.6795 21.1768 17.0625 21.875C17.4455 22.5732 17.625 23.3167 17.625 24.125C17.625 25.001 17.4232 25.8102 17 26.5C16.5768 27.1898 15.9821 27.707 15.25 28.0625C14.5179 28.418 13.7542 28.5937 12.9375 28.5938C11.3929 28.5938 10.1864 28.1732 9.3125 27.3438C8.43863 26.5143 8 25.4369 8 24.125C8 23.2659 8.21452 22.5023 8.625 21.8125C9.03548 21.1227 9.60953 20.5806 10.3438 20.2188C11.078 19.8569 11.9128 19.6875 12.8438 19.6875ZM8.15625 29.25L9.25 29.25L9.25 32.3125L17.4688 32.3125L17.4688 33.5625L9.25 33.5625L9.25 36.625L8.15625 36.625L8.15625 29.25ZM11.5938 46.1875C12.6927 46.1875 13.5469 46.5156 14.1875 47.125C14.8281 47.7344 15.1562 48.474 15.1562 49.375C15.1562 49.8333 15.0625 50.276 14.875 50.7188C14.6875 51.1615 14.3724 51.6354 13.9375 52.125C13.5026 52.6146 12.7917 53.3021 11.7812 54.1562C10.9375 54.8646 10.3958 55.3411 10.1562 55.5938C9.91667 55.8464 9.71875 56.0885 9.5625 56.3438L15.1875 56.3438L15.1875 57.6875L7.59375 57.6875C7.58333 57.349 7.66146 57.0313 7.78125 56.7188C7.97396 56.2031 8.26302 55.6875 8.6875 55.1875C9.11198 54.6875 9.72917 54.125 10.5312 53.4688C11.776 52.4479 12.625 51.6276 13.0625 51.0312C13.5 50.4349 13.7188 49.875 13.7188 49.3438C13.7188 48.7865 13.5234 48.3203 13.125 47.9375C12.7266 47.5547 12.2031 47.375 11.5625 47.375C10.8854 47.375 10.3438 47.5625 9.9375 47.9688C9.53125 48.375 9.31771 48.9375 9.3125 49.6562L7.875 49.5C7.97396 48.4219 8.35417 47.5964 9 47.0312C9.64583 46.4661 10.5052 46.1875 11.5938 46.1875ZM20.4062 46.1875C21.0208 46.1875 21.5677 46.3151 22.0312 46.5625C22.4948 46.8099 22.8854 47.1589 23.1875 47.625C23.4896 48.0911 23.7344 48.6745 23.9062 49.3438C24.0781 50.013 24.1562 50.9271 24.1562 52.0625C24.1562 53.4062 24.026 54.487 23.75 55.3125C23.474 56.138 23.0495 56.7682 22.5 57.2188C21.9505 57.6693 21.2448 57.9062 20.4062 57.9062C19.3021 57.9062 18.4427 57.5104 17.8125 56.7188C17.0573 55.7656 16.6875 54.2135 16.6875 52.0625C16.6875 50.7083 16.8151 49.6068 17.0938 48.7812C17.3724 47.9557 17.7943 47.3229 18.3438 46.875C18.8932 46.4271 19.5729 46.1875 20.4062 46.1875ZM29.375 46.1875C30.474 46.1875 31.3594 46.5156 32 47.125C32.6406 47.7344 32.9688 48.474 32.9688 49.375C32.9688 49.8333 32.875 50.276 32.6875 50.7188C32.5 51.1615 32.1849 51.6354 31.75 52.125C31.3151 52.6146 30.5729 53.3021 29.5625 54.1562C28.7187 54.8646 28.1771 55.3411 27.9375 55.5938C27.6979 55.8464 27.5 56.0885 27.3438 56.3438L32.9688 56.3438L32.9688 57.6875L25.4062 57.6875C25.3958 57.349 25.4427 57.0313 25.5625 56.7188C25.7552 56.2031 26.0755 55.6875 26.5 55.1875C26.9245 54.6875 27.5417 54.125 28.3438 53.4688C29.5885 52.4479 30.4062 51.6276 30.8438 51.0312C31.2813 50.4349 31.5 49.875 31.5 49.3438C31.5 48.7865 31.3047 48.3203 30.9062 47.9375C30.5078 47.5547 29.9844 47.375 29.3438 47.375C28.6667 47.375 28.125 47.5625 27.7188 47.9688C27.3125 48.375 27.1302 48.9375 27.125 49.6562L25.6562 49.5C25.7552 48.4219 26.1354 47.5964 26.7812 47.0312C27.4271 46.4661 28.2865 46.1875 29.375 46.1875ZM38.0625 46.1875C38.6875 46.1875 39.2865 46.3255 39.8125 46.5938C40.3385 46.862 40.7214 47.224 41 47.6875C41.2786 48.151 41.4375 48.6667 41.4375 49.1875C41.4375 49.6823 41.2969 50.125 41.0312 50.5312C40.7656 50.9375 40.3646 51.2604 39.8438 51.5C40.5208 51.6563 41.0625 51.9766 41.4375 52.4688C41.8125 52.9609 42 53.5729 42 54.3125C42 55.3125 41.6354 56.1484 40.9062 56.8438C40.1771 57.5391 39.2396 57.9062 38.125 57.9062C37.1198 57.9062 36.2891 57.599 35.625 57C34.9609 56.401 34.5938 55.6406 34.5 54.6875L35.9062 54.5C36.0677 55.2969 36.3307 55.8672 36.7188 56.2188C37.1068 56.5703 37.5677 56.75 38.125 56.75C38.7865 56.75 39.3568 56.5208 39.8125 56.0625C40.2682 55.6042 40.5 55.0208 40.5 54.3438C40.5 53.6979 40.2969 53.1693 39.875 52.75C39.4531 52.3307 38.901 52.125 38.25 52.125C37.9844 52.125 37.6458 52.1771 37.25 52.2812L37.4062 51.0312C37.5 51.0417 37.599 51.0625 37.6562 51.0625C38.2552 51.0625 38.7708 50.9062 39.25 50.5938C39.7292 50.2812 39.9688 49.8073 39.9688 49.1562C39.9688 48.6406 39.8177 48.2135 39.4688 47.875C39.1198 47.5365 38.6458 47.3438 38.0938 47.3438C37.5469 47.3438 37.1146 47.5312 36.75 47.875C36.3854 48.2188 36.1354 48.7187 36.0312 49.4062L34.625 49.1562C34.7969 48.2135 35.2031 47.487 35.8125 46.9688C36.4219 46.4505 37.1562 46.1875 38.0625 46.1875ZM10.9062 12.2812C10.5169 12.2812 10.1834 12.3657 9.90625 12.5625C9.62907 12.7593 9.43262 13.0221 9.34375 13.3438C9.28874 13.5511 9.25 13.9414 9.25 14.5L9.25 16.875L12.5938 16.875L12.5938 14.4688C12.5938 13.6732 12.4525 13.1156 12.1562 12.7812C11.86 12.4469 11.4437 12.2812 10.9062 12.2812ZM12.8125 20.9688C12.055 20.9688 11.4087 21.0877 10.8438 21.3438C10.2788 21.5998 9.84229 21.9757 9.53125 22.4688C9.22021 22.9618 9.0625 23.5114 9.0625 24.125C9.0625 24.9967 9.36995 25.7466 9.96875 26.375C10.5675 27.0034 11.568 27.3125 12.9688 27.3125C14.0902 27.3125 14.9484 27.0093 15.5938 26.4062C16.2391 25.8032 16.5625 25.0661 16.5625 24.1562C16.5625 23.2295 16.2454 22.4425 15.5938 21.8438C14.9421 21.245 14.0101 20.9688 12.8125 20.9688ZM20.4062 47.375C19.7604 47.375 19.2292 47.6406 18.8438 48.1875C18.3594 48.8854 18.125 50.1823 18.125 52.0625C18.125 53.9427 18.3411 55.1901 18.7812 55.8125C19.2214 56.4349 19.7604 56.75 20.4062 56.75C21.0521 56.75 21.5911 56.4375 22.0312 55.8125C22.4714 55.1875 22.7188 53.9375 22.7188 52.0625C22.7188 50.1771 22.4714 48.901 22.0312 48.2812C21.5911 47.6615 21.0625 47.375 20.4062 47.375Z" fill="#1a1919" fill-rule="nonzero" opacity="1" stroke="none"/>
<g fill="#1a1919" opacity="0" stroke="none">
<path clip-path="url(#TextBounds)" d="M15.1749 56.3438L15.1749 57.6953L7.60456 57.6953C7.59414 57.3568 7.64883 57.0313 7.76862 56.7188C7.96133 56.2031 8.26992 55.6953 8.6944 55.1953C9.11888 54.6953 9.73216 54.1172 10.5342 53.4609C11.779 52.4401 12.6202 51.6315 13.0577 51.0352C13.4952 50.4388 13.7139 49.875 13.7139 49.3438C13.7139 48.7865 13.5147 48.3164 13.1163 47.9336C12.7178 47.5508 12.1983 47.3594 11.5577 47.3594C10.8806 47.3594 10.3389 47.5625 9.93268 47.9688C9.52643 48.375 9.3207 48.9375 9.31549 49.6562L7.87018 49.5078C7.96914 48.4297 8.34154 47.6081 8.98737 47.043C9.6332 46.4779 10.5004 46.1953 11.5889 46.1953C12.6879 46.1953 13.5577 46.5 14.1983 47.1094C14.8389 47.7188 15.1592 48.474 15.1592 49.375C15.1592 49.8333 15.0655 50.2839 14.878 50.7266C14.6905 51.1693 14.3793 51.6354 13.9444 52.125C13.5095 52.6146 12.7868 53.2865 11.7764 54.1406C10.9327 54.849 10.391 55.3294 10.1514 55.582C9.91185 55.8346 9.71393 56.0885 9.55768 56.3438L15.1749 56.3438Z"/>
<path clip-path="url(#TextBounds)" d="M16.6827 52.0469C16.6827 50.6927 16.822 49.6029 17.1007 48.7773C17.3793 47.9518 17.7934 47.3151 18.3428 46.8672C18.8923 46.4193 19.5837 46.1953 20.4171 46.1953C21.0316 46.1953 21.5707 46.319 22.0342 46.5664C22.4978 46.8138 22.8806 47.1706 23.1827 47.6367C23.4848 48.1029 23.7217 48.6706 23.8936 49.3398C24.0655 50.0091 24.1514 50.9115 24.1514 52.0469C24.1514 53.3906 24.0134 54.4753 23.7374 55.3008C23.4613 56.1263 23.0486 56.7643 22.4991 57.2148C21.9496 57.6654 21.2556 57.8906 20.4171 57.8906C19.3129 57.8906 18.4457 57.4948 17.8155 56.7031C17.0603 55.75 16.6827 54.1979 16.6827 52.0469ZM18.128 52.0469C18.128 53.9271 18.348 55.1784 18.7882 55.8008C19.2283 56.4232 19.7712 56.7344 20.4171 56.7344C21.0629 56.7344 21.6059 56.4219 22.046 55.7969C22.4861 55.1719 22.7061 53.9219 22.7061 52.0469C22.7061 50.1615 22.4861 48.9089 22.046 48.2891C21.6059 47.6693 21.0577 47.3594 20.4014 47.3594C19.7556 47.3594 19.24 47.6328 18.8546 48.1797C18.3702 48.8776 18.128 50.1667 18.128 52.0469Z"/>
<path clip-path="url(#TextBounds)" d="M32.9717 56.3438L32.9717 57.6953L25.4014 57.6953C25.391 57.3568 25.4457 57.0313 25.5655 56.7188C25.7582 56.2031 26.0668 55.6953 26.4913 55.1953C26.9158 54.6953 27.529 54.1172 28.3311 53.4609C29.5759 52.4401 30.4171 51.6315 30.8546 51.0352C31.2921 50.4388 31.5108 49.875 31.5108 49.3438C31.5108 48.7865 31.3116 48.3164 30.9132 47.9336C30.5147 47.5508 29.9952 47.3594 29.3546 47.3594C28.6775 47.3594 28.1358 47.5625 27.7296 47.9688C27.3233 48.375 27.1176 48.9375 27.1124 49.6562L25.6671 49.5078C25.766 48.4297 26.1384 47.6081 26.7842 47.043C27.4301 46.4779 28.2973 46.1953 29.3858 46.1953C30.4848 46.1953 31.3546 46.5 31.9952 47.1094C32.6358 47.7188 32.9561 48.474 32.9561 49.375C32.9561 49.8333 32.8624 50.2839 32.6749 50.7266C32.4874 51.1693 32.1762 51.6354 31.7413 52.125C31.3064 52.6146 30.5837 53.2865 29.5733 54.1406C28.7296 54.849 28.1879 55.3294 27.9483 55.582C27.7087 55.8346 27.5108 56.0885 27.3546 56.3438L32.9717 56.3438Z"/>
<path clip-path="url(#TextBounds)" d="M34.4874 54.6719L35.8936 54.4844C36.0551 55.2813 36.3298 55.8555 36.7178 56.207C37.1059 56.5586 37.5785 56.7344 38.1358 56.7344C38.7973 56.7344 39.3559 56.5052 39.8116 56.0469C40.2673 55.5885 40.4952 55.0208 40.4952 54.3438C40.4952 53.6979 40.2842 53.1654 39.8624 52.7461C39.4405 52.3268 38.904 52.1172 38.253 52.1172C37.9874 52.1172 37.6566 52.1693 37.2608 52.2734L37.4171 51.0391C37.5108 51.0495 37.5863 51.0547 37.6436 51.0547C38.2426 51.0547 38.7816 50.8984 39.2608 50.5859C39.74 50.2734 39.9796 49.7917 39.9796 49.1406C39.9796 48.625 39.8051 48.1979 39.4561 47.8594C39.1072 47.5208 38.6566 47.3516 38.1046 47.3516C37.5577 47.3516 37.102 47.5234 36.7374 47.8672C36.3728 48.2109 36.1384 48.7266 36.0342 49.4141L34.628 49.1641C34.7999 48.2214 35.1905 47.4909 35.7999 46.9727C36.4092 46.4544 37.1671 46.1953 38.0733 46.1953C38.6983 46.1953 39.2738 46.3294 39.7999 46.5977C40.3259 46.8659 40.7283 47.2318 41.0069 47.6953C41.2855 48.1589 41.4249 48.651 41.4249 49.1719C41.4249 49.6667 41.2921 50.1172 41.0264 50.5234C40.7608 50.9297 40.3676 51.2526 39.8467 51.4922C40.5238 51.6484 41.0499 51.9727 41.4249 52.4648C41.7999 52.957 41.9874 53.5729 41.9874 54.3125C41.9874 55.3125 41.6228 56.1602 40.8936 56.8555C40.1645 57.5508 39.2426 57.8984 38.128 57.8984C37.1228 57.8984 36.2882 57.599 35.6241 57C34.96 56.401 34.5811 55.625 34.4874 54.6719Z"/>
</g>
</g>
</svg>
